<svg width="199" height="41" viewBox="0 0 199 41" fill="none" xmlns="http://www.w3.org/2000/svg">
<path d="M28.615 33.717L2.03726 15.3837C-0.656078 13.5259 0.259478 9.65777 3.618 8.74814L31.8654 1.08147C33.0794 0.643414 34.4302 0.818032 35.4929 1.5504C36.5556 2.28277 37.1996 3.4829 37.2224 4.77332L35.5484 30.7718C35.3498 33.8578 31.3084 35.5748 28.615 33.717Z" fill="url(#paint0_linear_4837_3873)"/>
<path d="M20.1855 38.243L4.52777 7.62223C3.79801 6.19395 3.92996 4.47722 4.86941 3.17724C5.80886 1.87725 7.39744 1.21317 8.98259 1.45779L38.0004 5.93631C39.3556 6.14549 40.528 6.99269 41.1521 8.21378C41.7761 9.43487 41.7759 10.8813 41.1515 12.1022L27.7841 38.2445C27.0523 39.6685 25.5855 40.5637 23.9844 40.5634C22.3833 40.5631 20.9168 39.6673 20.1855 38.243Z" fill="url(#paint1_linear_4837_3873)"/>
<path d="M37.1515 5.80449L22.6863 3.5719L4.92627 8.39412L12.0152 22.2623L28.6152 33.7171C28.9814 33.9669 29.3842 34.1584 29.8092 34.2845L36.1144 21.9541L37.1515 5.80449Z" fill="#001A49"/>
<path fill-rule="evenodd" clip-rule="evenodd" d="M113.139 6.66516C111.638 6.66516 110.421 7.88228 110.421 9.38368C110.436 10.8787 111.644 12.087 113.139 12.1022C114.641 12.1022 115.858 10.8851 115.858 9.38368C115.858 7.88228 114.641 6.66516 113.139 6.66516ZM115.406 13.4311H110.874V28.5333H115.406V13.4311Z" fill="#001A49"/>
<path fill-rule="evenodd" clip-rule="evenodd" d="M133.026 26.4706C134.381 24.9737 135.083 22.9983 134.976 20.9822C135.083 18.9662 134.381 16.991 133.026 15.4943C131.671 13.9976 129.775 13.1031 127.759 13.0088C126.058 12.9159 124.406 13.592 123.258 14.8503V13.4311H118.728V34.5748H123.258V27.114C124.405 28.3729 126.058 29.0496 127.759 28.957C129.775 28.8624 131.671 27.9675 133.026 26.4706ZM126.791 17.4775C128.765 17.4443 130.396 19.0087 130.446 20.9822C130.515 21.9631 130.162 22.9269 129.475 23.6309C128.789 24.335 127.834 24.7124 126.852 24.6681C124.878 24.6683 123.273 23.0769 123.256 21.1029C123.24 19.1289 124.817 17.5106 126.791 17.4775Z" fill="#001A49"/>
<path d="M148.96 24C148.96 27.474 145.939 28.954 142.677 28.954C139.981 29.198 137.408 27.7734 136.184 25.3585L140.11 23.1244C140.439 24.2487 141.509 24.9899 142.677 24.9022C143.765 24.9022 144.307 24.5688 144.307 23.9659C144.307 22.3037 136.877 23.1807 136.877 17.954C136.877 14.6622 139.655 13.0014 142.803 13.0014C145.208 12.9259 147.464 14.1636 148.692 16.2325L144.827 18.317C144.481 17.5065 143.684 16.9814 142.803 16.9837C142.018 16.9837 141.535 17.28 141.535 17.8296C141.531 19.5629 148.96 18.4148 148.96 24Z" fill="#001A49"/>
<path d="M165.519 13.4312V28.5334H160.988V27.1112C159.927 28.382 158.32 29.0673 156.668 28.9541C153.618 28.9541 151.021 26.7793 151.021 22.7008V13.4312H155.551V22.04C155.474 22.7686 155.722 23.4942 156.228 24.0237C156.734 24.5531 157.448 24.8328 158.18 24.7882C159.84 24.7882 160.994 23.8223 160.994 21.6771V13.4312H165.519Z" fill="#001A49"/>
<path d="M191.486 19.2592V28.5333H186.956V19.6533C186.956 18.1436 186.23 17.1762 184.781 17.1762C183.27 17.1762 182.425 18.234 182.425 20.0162V28.5333H177.894V19.6533C177.894 18.1436 177.169 17.1762 175.719 17.1762C174.209 17.1762 173.363 18.234 173.363 20.0162V28.5333H168.833V13.431H173.371V14.8147C174.325 13.5628 175.849 12.8805 177.418 13.0029C178.995 12.9258 180.498 13.6822 181.375 14.9955C182.396 13.6224 184.05 12.8699 185.756 13.0029C189.222 13.0088 191.486 15.4844 191.486 19.2592Z" fill="#001A49"/>
<path d="M195.325 13.3377C197.182 13.3377 198.688 11.8321 198.688 9.97478C198.688 8.11747 197.182 6.61182 195.325 6.61182C193.467 6.61182 191.962 8.11747 191.962 9.97478C191.962 11.8321 193.467 13.3377 195.325 13.3377Z" fill="#001A49"/>
<path fill-rule="evenodd" clip-rule="evenodd" d="M48.5659 6.48438H53.0978V28.5333H48.5659V6.48438ZM55.6637 20.9822C55.6535 17.7442 57.5962 14.8194 60.5847 13.5732C63.5733 12.327 67.0184 13.0052 69.3116 15.2912C71.6048 17.5772 72.2939 21.0201 71.0571 24.0126C69.8204 27.0051 66.9017 28.957 63.6637 28.957C61.5395 28.9797 59.4952 28.1476 57.9907 26.6478C56.4862 25.148 55.6477 23.1065 55.6637 20.9822ZM63.6095 17.599C65.5159 17.5661 67.0926 19.076 67.1422 20.9822H67.1481C67.1978 21.9271 66.85 22.8497 66.189 23.5267C65.528 24.2038 64.614 24.5736 63.6681 24.5466C61.7614 24.546 60.2115 23.0086 60.1954 21.1019C60.1793 19.1952 61.703 17.6318 63.6095 17.599ZM89.7333 13.4266V27.7747C89.7333 32.8488 85.7763 34.9925 81.76 34.9925C78.8778 35.2101 76.1155 33.7998 74.6015 31.3377L78.4667 29.1022C79.1055 30.3929 80.4783 31.1516 81.9111 31.0059C82.8156 31.1294 83.7274 30.8358 84.3898 30.2076C85.0522 29.5794 85.3938 28.6846 85.3185 27.7747V26.3851C84.2423 27.7011 82.6062 28.4293 80.9081 28.3481C76.7639 28.2193 73.471 24.8225 73.471 20.6762C73.471 16.53 76.7639 13.1332 80.9081 13.0044C82.6062 12.9231 84.2423 13.6513 85.3185 14.9673V13.4266H89.7333ZM83.172 17.1898C84.5336 17.8036 85.3855 19.1832 85.3244 20.6755V20.6799C85.3511 21.6445 84.9689 22.5754 84.2722 23.243C83.5755 23.9106 82.6292 24.2528 81.6667 24.1851C80.1731 24.1845 78.8299 23.2762 78.2729 21.8905C77.716 20.5047 78.0571 18.9195 79.1348 17.8855C80.2125 16.8514 81.8104 16.5761 83.172 17.1898ZM92.2993 20.9718C92.2891 17.7338 94.2317 14.809 97.2203 13.5628C100.209 12.3166 103.654 12.9948 105.947 15.2808C108.24 17.5668 108.929 21.0097 107.693 24.0022C106.456 26.9947 103.537 28.9466 100.299 28.9466C98.1768 28.9693 96.1342 28.1386 94.63 26.6411C93.1258 25.1436 92.286 23.1047 92.2993 20.9822V20.9718ZM100.244 17.5856C102.152 17.553 103.729 19.0644 103.778 20.9718V20.9822C103.824 21.9243 103.476 22.8431 102.817 23.5176C102.157 24.1922 101.247 24.5613 100.304 24.5362C98.3957 24.5364 96.8443 22.9984 96.8279 21.0905C96.8115 19.1826 98.3363 17.6182 100.244 17.5856Z" fill="#001A49"/>
<defs>
<linearGradient id="paint0_linear_4837_3873" x1="19.4876" y1="41.733" x2="36.0901" y2="16.4981" gradientUnits="userSpaceOnUse">
<stop stop-color="#FFD7A9"/>
<stop offset="1" stop-color="#FFAE70"/>
</linearGradient>
<linearGradient id="paint1_linear_4837_3873" x1="25.2387" y1="49.8199" x2="51.7933" y2="23.5415" gradientUnits="userSpaceOnUse">
<stop stop-color="#CD10FF"/>
<stop offset="1" stop-color="#9F06FF"/>
</linearGradient>
</defs>
</svg>
